<svg width="815" height="74" viewBox="0 0 815 74" fill="none" xmlns="http://www.w3.org/2000/svg">
<path d="M12.9653 26.0775C12.166 26.0775 11.5179 25.4294 11.5179 24.6301C11.5179 23.8308 12.166 23.1827 12.9653 23.1827H25.6248L18.7683 17.1988C18.166 16.6732 18.1039 15.7588 18.6295 15.1565C19.1549 14.554 20.0693 14.4921 20.6718 15.0177L30.0273 23.1827H30.4905V10.1711C30.4905 9.37175 31.1385 8.72368 31.9379 8.72368C32.7372 8.72368 33.3853 9.37175 33.3853 10.1711V23.1827H33.8477L43.2037 15.0177C43.8062 14.4921 44.7204 14.5542 45.246 15.1565C45.7716 15.7588 45.7096 16.6732 45.1073 17.1988L38.2504 23.1827H50.9104C51.7098 23.1827 52.3578 23.8308 52.3578 24.6301C52.3578 25.4294 51.7098 26.0775 50.9104 26.0775H12.9653ZM6.34053 56.0521C7.13986 56.0521 7.78794 55.4041 7.78794 54.6047V18.7545L31.9377 3.16981L56.0874 18.7545L56.0878 26.109C56.0878 26.9083 56.7359 27.5564 57.5352 27.5564C58.3345 27.5564 58.9826 26.9083 58.9826 26.109L58.9822 17.9663C58.9822 17.4747 58.7327 17.0166 58.3197 16.7501L32.7225 0.231223C32.2447 -0.0770742 31.6307 -0.0770742 31.1528 0.231223L5.55568 16.7499C5.14263 17.0164 4.89313 17.4743 4.89313 17.9661V54.6047C4.89313 55.4041 5.54102 56.0521 6.34053 56.0521ZM69.1504 43.6799C69.9498 43.6799 70.5978 43.0318 70.5978 42.2325V41.8614C70.5978 41.0621 69.9498 40.414 69.1504 40.414C68.3511 40.414 67.703 41.0621 67.703 41.8614V42.2325C67.703 43.0318 68.3511 43.6799 69.1504 43.6799ZM55.5608 47.5875C54.7614 47.5875 54.1134 48.2356 54.1134 49.0349V49.406C54.1134 50.2053 54.7614 50.8534 55.5608 50.8534C56.3601 50.8534 57.0082 50.2053 57.0082 49.406V49.0349C57.0082 48.2356 56.3603 47.5875 55.5608 47.5875ZM38.3604 30.7573C39.1597 30.7573 39.8078 31.4054 39.8078 32.2047V41.1256C39.8078 41.9249 39.1597 42.573 38.3604 42.573H25.5156C24.7162 42.573 24.0682 41.9249 24.0682 41.1256V32.2047C24.0682 31.4054 24.7162 30.7573 25.5156 30.7573H38.3604ZM36.913 33.6521H26.963V39.6782H36.913V33.6521ZM80 72.3606C80 73.1599 79.3519 73.808 78.5526 73.808H42.9134C42.9025 73.8082 42.8916 73.8083 42.8806 73.8083C42.8696 73.8083 42.8587 73.8083 42.8479 73.808H1.4474C0.648075 73.808 0 73.1599 0 72.3606C0 71.5612 0.648075 70.9132 1.4474 70.9132H2.86894V61.2593C2.86894 60.7453 3.14159 60.2697 3.58522 60.0101L6.47985 58.3162C6.93144 58.0521 7.49031 58.0521 7.9419 58.3162L10.1056 59.5823L12.2693 58.3162C12.7209 58.0521 13.2797 58.0519 13.7315 58.3162L15.8948 59.5823L18.0584 58.3162C18.5098 58.0521 19.0688 58.0521 19.5206 58.3162L22.4149 60.0101C22.8587 60.2699 23.1311 60.7452 23.1311 61.2593V70.9132H41.4334V50.5323H22.4424V54.5143C22.4424 55.3136 21.7943 55.9617 20.995 55.9617C20.1956 55.9617 19.5476 55.3136 19.5476 54.5143V49.0849C19.5476 48.2855 20.1956 47.6375 20.995 47.6375H42.8806C43.6799 47.6375 44.328 48.2855 44.328 49.0849V70.9133H51.0796V61.2593C51.0796 60.7453 51.3523 60.2699 51.7959 60.0101L54.6903 58.3162C55.1417 58.0521 55.7008 58.0521 56.1524 58.3162L58.3159 59.5823L60.4794 58.3162C60.931 58.0521 61.4899 58.0521 61.9415 58.3162L62.6577 58.7354V55.924C61.6214 55.7051 60.6527 55.2523 59.8201 54.5986C58.6095 55.5492 57.1113 56.0747 55.5352 56.0747C51.7025 56.0747 48.5845 52.9567 48.5845 49.1241C48.5845 46.5622 49.9622 44.2728 52.1259 43.0626C52.0392 42.6222 51.9958 42.1724 51.9958 41.7165C51.9958 38.5009 54.1714 35.7845 57.1607 34.9962C57.3152 31.2994 60.371 28.3394 64.105 28.3394C67.8393 28.3394 70.8951 31.2996 71.0498 34.9964C74.0389 35.7845 76.2143 38.5009 76.2143 41.7165C76.2143 42.1726 76.1707 42.6222 76.084 43.0626C78.2477 44.2728 79.6255 46.5622 79.6255 49.1241C79.6255 52.9569 76.5074 56.0747 72.6749 56.0747C71.0988 56.0747 69.6004 55.5492 68.3898 54.5986C67.5572 55.2523 66.5885 55.7049 65.5522 55.924V58.7354L66.2687 58.3162C66.7201 58.0521 67.2791 58.0519 67.7307 58.3162L69.894 59.5823L72.0577 58.3162C72.5093 58.0521 73.0682 58.0519 73.52 58.3162L76.4142 60.0101C76.8579 60.2697 77.1305 60.7452 77.1305 61.2592V70.913H78.552C79.3519 70.9132 80 71.5612 80 72.3606ZM8.65819 62.0894L7.21078 61.2425L5.76356 62.0894V70.9133H8.65819V62.0894ZM14.4473 62.0892L13.0002 61.2423L11.553 62.0892V70.9132H14.4473V62.0892ZM20.2363 62.0892L18.7893 61.2423L17.3419 62.0894V70.9132H20.2362L20.2363 62.0892ZM56.8687 62.0892L55.4214 61.2423L53.9744 62.0892V70.9132H56.8687V62.0892ZM62.6577 62.0892L61.2105 61.2423L59.7633 62.0892V70.9132H62.6576L62.6577 62.0892ZM65.5527 47.6411V52.9145C66.214 52.6621 66.8049 52.237 67.2639 51.6681C67.5388 51.3276 67.9527 51.1297 68.3902 51.1297C68.8279 51.1297 69.2422 51.3278 69.5168 51.6683C70.2919 52.629 71.4429 53.1799 72.6752 53.1799C74.9117 53.1799 76.731 51.3604 76.731 49.1241C76.731 47.3433 75.5908 45.7881 73.8936 45.2541C73.5039 45.1315 73.184 44.8499 73.0132 44.4787C72.8422 44.1076 72.8363 43.6815 72.9966 43.3058C73.2111 42.8028 73.3199 42.268 73.3199 41.7163C73.3199 39.5478 71.6251 37.7682 69.4614 37.6652C69.0479 37.6455 68.6627 37.4497 68.4029 37.1272C68.1432 36.8047 68.0341 36.3864 68.1031 35.9783C68.1416 35.7501 68.1611 35.5185 68.1611 35.29C68.1611 33.0536 66.3416 31.2341 64.1051 31.2341C61.8689 31.2341 60.0495 33.0536 60.0495 35.29C60.0495 35.52 60.0689 35.7512 60.1072 35.9774C60.1765 36.3857 60.0674 36.804 59.8078 37.1268C59.5482 37.4496 59.1628 37.6455 58.749 37.6652C56.5855 37.7682 54.8906 39.5478 54.8906 41.7163C54.8906 42.268 54.9994 42.8028 55.2137 43.3058C55.3741 43.6815 55.3681 44.1076 55.1971 44.4787C55.0263 44.8498 54.7064 45.1315 54.3167 45.2541C52.6196 45.7881 51.4794 47.3431 51.4794 49.1241C51.4794 51.3606 53.299 53.1799 55.5354 53.1799C56.7675 53.1799 57.9186 52.629 58.6937 51.6683C58.9685 51.3278 59.3825 51.1297 59.8201 51.1297C60.2576 51.1297 60.6717 51.3276 60.9465 51.6681C61.4056 52.237 61.9965 52.6621 62.6577 52.9145V47.6411C62.6577 46.8418 63.3058 46.1937 64.1051 46.1937C64.9045 46.1937 65.5527 46.8416 65.5527 47.6411ZM68.447 62.0892L67.0001 61.2423L65.5527 62.0892V70.9132H68.4472L68.447 62.0892ZM74.2361 62.0892L72.789 61.2423L71.3416 62.0894V70.9132H74.2361V62.0892Z" fill="#3F372A"/>
<path d="M119.75 62.0604C115.417 62.0604 111.552 61.1854 108.156 59.4354C104.76 57.6854 102.094 55.1542 100.156 51.8417C98.2188 48.5084 97.25 44.4667 97.25 39.7167V37.6229C97.25 33.2479 98.1354 29.3834 99.9062 26.0292C101.698 22.6542 104.24 20.0188 107.531 18.1229C110.844 16.2063 114.771 15.2479 119.312 15.2479C122.479 15.2479 125.49 15.675 128.344 16.5292C131.219 17.3625 133.885 18.8 136.344 20.8417V32.5604H128.375L127.281 25.8417C126.573 25.3625 125.823 24.9459 125.031 24.5917C124.26 24.2375 123.427 23.9667 122.531 23.7792C121.656 23.5917 120.708 23.4979 119.688 23.4979C117.375 23.4979 115.354 24.05 113.625 25.1542C111.896 26.2584 110.552 27.8625 109.594 29.9667C108.656 32.05 108.188 34.5813 108.188 37.5604V39.7167C108.188 42.5084 108.677 44.9667 109.656 47.0917C110.635 49.1959 112 50.8417 113.75 52.0292C115.521 53.2167 117.562 53.8104 119.875 53.8104C121.104 53.8104 122.354 53.6854 123.625 53.4354C124.896 53.1646 126.125 52.8104 127.312 52.3729L128.406 45.9354H136.406V57.4042C134.594 58.6542 132.281 59.7479 129.469 60.6854C126.656 61.6021 123.417 62.0604 119.75 62.0604Z" fill="#3F372A"/>
<path d="M147.281 61.4042V54.9979L152 53.9979V23.3417L147.281 22.3417V15.9042H167.688V22.3417L162.969 23.3417V34.8417H179.531V23.3417L174.812 22.3417V15.9042H195.188V22.3417L190.469 23.3417V53.9979L195.188 54.9979V61.4042H174.812V54.9979L179.531 53.9979V43.2479H162.969V53.9979L167.688 54.9979V61.4042H147.281Z" fill="#3F372A"/>
<path d="M200.312 61.4042V54.9979L203.5 54.5292L217.062 15.9042H228.938L242.531 54.5292L245.719 54.9979V61.4042H228.719V54.9979L231.688 54.4354L230.312 49.4979H215.688L214.375 54.4354L217.344 54.9979V61.4042H200.312ZM218 41.8104H227.969L223.531 28.0292L223.031 26.4354H222.844L222.312 28.1854L218 41.8104ZM216.531 12.6229L223.031 4.09168H234.219L234.281 4.27918L225.531 12.6229H216.531Z" fill="#3F372A"/>
<path d="M276.375 62.0604C272.042 62.0604 268.177 61.1854 264.781 59.4354C261.385 57.6854 258.719 55.1542 256.781 51.8417C254.844 48.5084 253.875 44.4667 253.875 39.7167V37.6229C253.875 33.2479 254.76 29.3834 256.531 26.0292C258.323 22.6542 260.865 20.0188 264.156 18.1229C267.469 16.2063 271.396 15.2479 275.938 15.2479C279.104 15.2479 282.115 15.675 284.969 16.5292C287.844 17.3625 290.51 18.8 292.969 20.8417V32.5604H285L283.906 25.8417C283.198 25.3625 282.448 24.9459 281.656 24.5917C280.885 24.2375 280.052 23.9667 279.156 23.7792C278.281 23.5917 277.333 23.4979 276.312 23.4979C274 23.4979 271.979 24.05 270.25 25.1542C268.521 26.2584 267.177 27.8625 266.219 29.9667C265.281 32.05 264.812 34.5813 264.812 37.5604V39.7167C264.812 42.5084 265.302 44.9667 266.281 47.0917C267.26 49.1959 268.625 50.8417 270.375 52.0292C272.146 53.2167 274.188 53.8104 276.5 53.8104C277.729 53.8104 278.979 53.6854 280.25 53.4354C281.521 53.1646 282.75 52.8104 283.938 52.3729L285.031 45.9354H293.031V57.4042C291.219 58.6542 288.906 59.7479 286.094 60.6854C283.281 61.6021 280.042 62.0604 276.375 62.0604Z" fill="#3F372A"/>
<path d="M303.375 61.4042V54.9979L306.562 54.5292L320.125 15.9042H332L345.594 54.5292L348.781 54.9979V61.4042H331.781V54.9979L334.75 54.4354L333.375 49.4979H318.75L317.438 54.4354L320.406 54.9979V61.4042H303.375ZM321.062 41.8104H331.031L326.594 28.0292L326.094 26.4354H325.906L325.375 28.1854L321.062 41.8104Z" fill="#3F372A"/>
<path d="M358.781 61.4042V54.9979L363.5 53.9979V23.3417L358.781 22.3417V15.8729H381.156C384.76 15.8729 387.885 16.4459 390.531 17.5917C393.177 18.7375 395.219 20.3729 396.656 22.4979C398.094 24.6021 398.812 27.1021 398.812 29.9979C398.812 32.6646 398.083 35.1438 396.625 37.4354C395.188 39.7271 393.208 41.5709 390.688 42.9667C388.167 44.3417 385.292 45.0188 382.062 44.9979L374.469 44.9042V53.9979L379.188 54.9979V61.4042H358.781ZM387.594 61.4042L381.469 43.6542L391 40.4042L396.531 53.9354L400.844 55.0292V61.4042H387.594ZM374.469 36.4979H381.281C383.406 36.4979 385.042 36.0084 386.188 35.0292C387.333 34.0292 387.906 32.5917 387.906 30.7167C387.906 28.7792 387.323 27.2271 386.156 26.0604C384.99 24.8729 383.323 24.2792 381.156 24.2792H374.469V36.4979Z" fill="#3F372A"/>
<path d="M410.688 61.4042V54.9979L413.875 54.5292L427.438 15.9042H439.312L452.906 54.5292L456.094 54.9979V61.4042H439.094V54.9979L442.062 54.4354L440.688 49.4979H426.062L424.75 54.4354L427.719 54.9979V61.4042H410.688ZM428.375 41.8104H438.344L433.906 28.0292L433.406 26.4354H433.219L432.688 28.1854L428.375 41.8104Z" fill="#3F372A"/>
<path d="M489.406 61.4042V54.9979L494.094 53.9979V23.3417L489.406 22.3417V15.9042H510.875L521.875 45.8729H522.062L532.75 15.9042H553.969V22.3417L549.25 23.3417V53.9979L553.969 54.9979V61.4042H533.594V54.9979L538.5 53.9979V48.0604L538.75 26.6542L538.562 26.6229L525.688 61.4042H517.062L504 27.0292L503.781 27.0604L504.531 46.5604V53.9979L509.812 54.9979V61.4042H489.406Z" fill="#3F372A"/>
<path d="M586.125 62.0604C582.979 62.0604 580.083 61.4875 577.438 60.3417C574.812 59.175 572.531 57.55 570.594 55.4667C568.656 53.3834 567.156 50.9459 566.094 48.1542C565.052 45.3417 564.531 42.2896 564.531 38.9979V38.2792C564.531 35.0084 565.052 31.9771 566.094 29.1854C567.156 26.3938 568.646 23.9563 570.562 21.8729C572.5 19.7896 574.781 18.1646 577.406 16.9979C580.031 15.8313 582.917 15.2479 586.062 15.2479C589.146 15.2479 592.01 15.8313 594.656 16.9979C597.302 18.1646 599.615 19.7896 601.594 21.8729C603.594 23.9563 605.146 26.3938 606.25 29.1854C607.354 31.9771 607.906 35.0084 607.906 38.2792V38.9979C607.906 42.2896 607.354 45.3417 606.25 48.1542C605.146 50.9459 603.604 53.3834 601.625 55.4667C599.646 57.55 597.333 59.175 594.688 60.3417C592.042 61.4875 589.188 62.0604 586.125 62.0604ZM586.125 53.7479C588.417 53.7479 590.375 53.1334 592 51.9042C593.625 50.675 594.865 48.9563 595.719 46.7479C596.573 44.5396 597 41.9563 597 38.9979V38.2167C597 35.3209 596.562 32.7792 595.688 30.5917C594.833 28.3834 593.594 26.6646 591.969 25.4354C590.344 24.2063 588.375 23.5917 586.062 23.5917C583.625 23.5917 581.625 24.1959 580.062 25.4042C578.521 26.6125 577.375 28.3104 576.625 30.4979C575.875 32.6854 575.5 35.2584 575.5 38.2167V38.9979C575.5 41.9563 575.875 44.55 576.625 46.7792C577.396 48.9875 578.562 50.7063 580.125 51.9354C581.708 53.1438 583.708 53.7479 586.125 53.7479Z" fill="#3F372A"/>
<path d="M618.875 61.4042V54.9979L623.562 53.9979V23.3417L618.875 22.3417V15.9042H634.719L652.969 45.0292H653.156V23.3417L647.188 22.3417V15.9042H667.594V22.3417L662.875 23.3417V61.4042H652.062L633.469 32.9042H633.281V53.9979L639.281 54.9979V61.4042H618.875Z" fill="#3F372A"/>
<path d="M687.312 61.4042V54.9979L692.062 53.9979V24.4042H685.031L684.75 29.3104H676.469V15.9042H718.75V29.3104H710.375L710.125 24.4042H703.031V53.9979L707.781 54.9979V61.4042H687.312Z" fill="#3F372A"/>
<path d="M728.406 61.4042V54.9979L733.125 53.9979V23.3417L728.406 22.3417V15.9042H764.75V29.0292H756.469L756.219 24.3417H744.094V33.6854H758.625V42.0917H744.094V52.9354H756.812L757.062 48.0292H765.25V61.4042H728.406Z" fill="#3F372A"/>
<path d="M797.25 62.0604C793.542 62.0604 790.25 61.7063 787.375 60.9979C784.5 60.2896 781.635 58.9563 778.781 56.9979V45.1854H787.25L788.188 51.2479C788.854 51.9979 790.031 52.6334 791.719 53.1542C793.406 53.6542 795.25 53.9042 797.25 53.9042C798.646 53.9042 799.812 53.7375 800.75 53.4042C801.688 53.05 802.396 52.5396 802.875 51.8729C803.354 51.2063 803.594 50.4042 803.594 49.4667C803.594 48.5709 803.365 47.7688 802.906 47.0604C802.469 46.3521 801.74 45.6854 800.719 45.0604C799.698 44.4146 798.323 43.7584 796.594 43.0917C792.698 41.8417 789.5 40.5709 787 39.2792C784.5 37.9875 782.635 36.4563 781.406 34.6854C780.198 32.9146 779.594 30.7167 779.594 28.0917C779.594 25.5709 780.312 23.3729 781.75 21.4979C783.188 19.6021 785.167 18.1125 787.688 17.0292C790.208 15.9459 793.094 15.3729 796.344 15.3104C800.052 15.2271 803.333 15.6021 806.188 16.4354C809.042 17.2479 811.562 18.4875 813.75 20.1542V31.1229H805.625L804.344 25.0292C803.635 24.675 802.625 24.3521 801.312 24.0604C800 23.7688 798.604 23.6229 797.125 23.6229C795.854 23.6229 794.719 23.7896 793.719 24.1229C792.74 24.4563 791.958 24.9563 791.375 25.6229C790.812 26.2896 790.531 27.1229 790.531 28.1229C790.531 28.9354 790.771 29.6646 791.25 30.3104C791.729 30.9354 792.573 31.5708 793.781 32.2167C794.99 32.8417 796.677 33.5709 798.844 34.4042C804.01 35.925 807.927 37.8313 810.594 40.1229C813.281 42.3938 814.625 45.4875 814.625 49.4042C814.625 52.0917 813.896 54.3834 812.438 56.2792C810.979 58.1542 808.948 59.5917 806.344 60.5917C803.74 61.5709 800.708 62.0604 797.25 62.0604Z" fill="#3F372A"/>
</svg>
