<svg width="322" height="243" viewBox="0 0 322 243" fill="none" xmlns="http://www.w3.org/2000/svg">
<path d="M125.621 37.4264C124.473 37.4264 123.543 36.4963 123.543 35.3491C123.543 34.2019 124.473 33.2718 125.621 33.2718H143.796L133.952 24.6837C133.088 23.9293 132.998 22.617 133.753 21.7526C134.507 20.8879 135.82 20.7991 136.685 21.5534L150.117 33.2718H150.782V14.5975C150.782 13.4503 151.712 12.5202 152.86 12.5202C154.008 12.5202 154.938 13.4503 154.938 14.5975V33.2718H155.602L169.035 21.5534C169.9 20.7991 171.212 20.8882 171.967 21.7526C172.722 22.617 172.632 23.9293 171.768 24.6837L161.923 33.2718H180.099C181.247 33.2718 182.178 34.2019 182.178 35.3491C182.178 36.4963 181.247 37.4264 180.099 37.4264H125.621ZM116.109 80.446C117.257 80.446 118.188 79.5159 118.188 78.3687V26.9165L152.86 4.54932L187.532 26.9165L187.533 37.4716C187.533 38.6188 188.463 39.5489 189.611 39.5489C190.758 39.5489 191.689 38.6188 191.689 37.4716L191.688 25.7852C191.688 25.0797 191.33 24.4222 190.737 24.0397L153.987 0.331851C153.301 -0.110617 152.419 -0.110617 151.733 0.331851L114.983 24.0394C114.39 24.4219 114.031 25.0791 114.031 25.7849V78.3687C114.031 79.5159 114.962 80.446 116.109 80.446ZM206.287 62.6894C207.435 62.6894 208.365 61.7593 208.365 60.6121V60.0795C208.365 58.9323 207.435 58.0022 206.287 58.0022C205.139 58.0022 204.209 58.9323 204.209 60.0795V60.6121C204.209 61.7593 205.139 62.6894 206.287 62.6894ZM186.776 68.2976C185.628 68.2976 184.698 69.2278 184.698 70.375V70.9075C184.698 72.0547 185.628 72.9848 186.776 72.9848C187.924 72.9848 188.854 72.0547 188.854 70.9075V70.375C188.854 69.2278 187.924 68.2976 186.776 68.2976ZM162.081 44.1429C163.229 44.1429 164.159 45.073 164.159 46.2202V59.0235C164.159 60.1707 163.229 61.1008 162.081 61.1008H143.639C142.492 61.1008 141.561 60.1707 141.561 59.0235V46.2202C141.561 45.073 142.492 44.1429 143.639 44.1429H162.081ZM160.003 48.2975H145.718V56.9462H160.003V48.2975ZM221.864 103.852C221.864 104.999 220.934 105.929 219.786 105.929H168.618C168.602 105.929 168.587 105.93 168.571 105.93C168.555 105.93 168.539 105.93 168.524 105.929H109.084C107.937 105.929 107.006 104.999 107.006 103.852C107.006 102.705 107.937 101.775 109.084 101.775H111.125V87.9194C111.125 87.1817 111.517 86.4991 112.154 86.1264L116.309 83.6955C116.958 83.3164 117.76 83.3164 118.409 83.6955L121.515 85.5126L124.621 83.6955C125.27 83.3164 126.072 83.3161 126.721 83.6955L129.827 85.5126L132.933 83.6955C133.581 83.3164 134.384 83.3164 135.032 83.6955L139.188 86.1264C139.825 86.4993 140.216 87.1815 140.216 87.9194V101.775H166.493V72.5239H139.227V78.2389C139.227 79.3861 138.297 80.3162 137.149 80.3162C136.001 80.3162 135.071 79.3861 135.071 78.2389V70.4466C135.071 69.2994 136.001 68.3693 137.149 68.3693H168.571C169.718 68.3693 170.649 69.2994 170.649 70.4466V101.775H180.342V87.9194C180.342 87.1817 180.734 86.4993 181.371 86.1264L185.526 83.6955C186.174 83.3164 186.977 83.3164 187.625 83.6955L190.732 85.5126L193.838 83.6955C194.486 83.3164 195.289 83.3164 195.937 83.6955L196.965 84.2971V80.2622C195.477 79.948 194.087 79.2981 192.891 78.3599C191.153 79.7242 189.002 80.4785 186.739 80.4785C181.237 80.4785 176.76 76.0034 176.76 70.503C176.76 66.8261 178.738 63.5403 181.844 61.8034C181.72 61.1714 181.658 60.5259 181.658 59.8715C181.658 55.2565 184.781 51.3579 189.073 50.2266C189.295 44.9209 193.682 40.6728 199.043 40.6728C204.405 40.6728 208.792 44.9211 209.014 50.2268C213.305 51.3579 216.429 55.2565 216.429 59.8715C216.429 60.5262 216.366 61.1714 216.242 61.8034C219.348 63.5403 221.326 66.8261 221.326 70.503C221.326 76.0037 216.85 80.4785 211.347 80.4785C209.084 80.4785 206.933 79.7242 205.195 78.3599C204 79.2981 202.609 79.9477 201.121 80.2622V84.2971L202.15 83.6955C202.798 83.3164 203.6 83.3161 204.249 83.6955L207.355 85.5126L210.461 83.6955C211.109 83.3164 211.912 83.3161 212.56 83.6955L216.716 86.1264C217.353 86.4991 217.744 87.1815 217.744 87.9192V101.774H219.785C220.934 101.775 221.864 102.705 221.864 103.852ZM119.437 89.1108L117.359 87.8953L115.281 89.1108V101.775H119.437V89.1108ZM127.748 89.1105L125.671 87.895L123.593 89.1105V101.775H127.748V89.1105ZM136.06 89.1105L133.982 87.895L131.904 89.1108V101.775H136.06L136.06 89.1105ZM188.654 89.1105L186.576 87.895L184.498 89.1105V101.775H188.654V89.1105ZM196.965 89.1105L194.887 87.895L192.81 89.1105V101.775H196.965L196.965 89.1105ZM201.122 68.3745V75.9429C202.071 75.5807 202.92 74.9705 203.579 74.1541C203.973 73.6654 204.567 73.3814 205.196 73.3814C205.824 73.3814 206.419 73.6657 206.813 74.1544C207.926 75.5332 209.578 76.3239 211.348 76.3239C214.559 76.3239 217.171 73.7124 217.171 70.503C217.171 67.9471 215.534 65.715 213.097 64.9488C212.537 64.7727 212.078 64.3687 211.833 63.8358C211.587 63.3033 211.579 62.6918 211.809 62.1524C212.117 61.4306 212.273 60.663 212.273 59.8713C212.273 56.759 209.84 54.2049 206.734 54.0571C206.14 54.0288 205.587 53.7479 205.214 53.2849C204.841 52.8222 204.684 52.2218 204.783 51.636C204.839 51.3086 204.867 50.9762 204.867 50.6483C204.867 47.4386 202.254 44.8271 199.043 44.8271C195.833 44.8271 193.221 47.4386 193.221 50.6483C193.221 50.9783 193.248 51.3102 193.304 51.6347C193.403 52.2208 193.246 52.8211 192.874 53.2844C192.501 53.7476 191.948 54.0288 191.353 54.0571C188.247 54.2049 185.814 56.759 185.814 59.8713C185.814 60.663 185.97 61.4306 186.278 62.1524C186.508 62.6918 186.499 63.3033 186.254 63.8358C186.009 64.3684 185.549 64.7727 184.99 64.9488C182.553 65.715 180.916 67.9468 180.916 70.503C180.916 73.7127 183.529 76.3239 186.74 76.3239C188.509 76.3239 190.161 75.5332 191.274 74.1544C191.669 73.6657 192.263 73.3814 192.891 73.3814C193.519 73.3814 194.114 73.6654 194.509 74.1541C195.168 74.9705 196.016 75.5807 196.965 75.9429V68.3745C196.965 67.2273 197.896 66.2972 199.043 66.2972C200.191 66.2972 201.122 67.2271 201.122 68.3745ZM205.277 89.1105L203.2 87.895L201.122 89.1105V101.775H205.277L205.277 89.1105ZM213.589 89.1105L211.511 87.895L209.433 89.1108V101.775H213.589V89.1105Z" fill="#F7F7F7"/>
<path d="M20.1898 192.768C16.3014 192.768 12.8336 191.983 9.78647 190.413C6.7393 188.844 4.34643 186.573 2.60786 183.602C0.869285 180.612 0 176.986 0 172.726V170.848C0 166.923 0.794508 163.457 2.38352 160.448C3.99123 157.421 6.27194 155.057 9.22564 153.356C12.198 151.637 15.7219 150.777 19.7973 150.777C22.6388 150.777 25.3401 151.16 27.9012 151.926C30.4811 152.674 32.8739 153.963 35.0799 155.795V166.306H27.9293L26.9478 160.28C26.3122 159.85 25.6392 159.476 24.9289 159.159C24.2372 158.841 23.4894 158.598 22.6855 158.43C21.9004 158.262 21.0498 158.177 20.1338 158.177C18.0587 158.177 16.2453 158.673 14.6937 159.663C13.1421 160.654 11.9363 162.092 11.0764 163.98C10.2351 165.849 9.81451 168.119 9.81451 170.791V172.726C9.81451 175.23 10.2538 177.435 11.1325 179.341C12.0111 181.228 13.2356 182.705 14.8059 183.77C16.3949 184.835 18.2269 185.368 20.302 185.368C21.405 185.368 22.5266 185.256 23.667 185.031C24.8073 184.788 25.9103 184.471 26.9759 184.078L27.9573 178.304H35.1359V188.591C33.5095 189.713 31.4345 190.694 28.9107 191.535C26.387 192.357 23.48 192.768 20.1898 192.768Z" fill="#F7F7F7"/>
<path d="M44.8944 192.179V186.433L49.1286 185.536V158.037L44.8944 157.14V151.366H63.2054V157.14L58.9712 158.037V168.353H73.8331V158.037L69.5989 157.14V151.366H87.8819V157.14L83.6477 158.037V185.536L87.8819 186.433V192.179H69.5989V186.433L73.8331 185.536V175.893H58.9712V185.536L63.2054 186.433V192.179H44.8944Z" fill="#F7F7F7"/>
<path d="M92.4807 192.179V186.433L95.3409 186.012L107.511 151.366H118.167L130.365 186.012L133.225 186.433V192.179H117.97V186.433L120.634 185.928L119.401 181.499H106.277L105.099 185.928L107.763 186.433V192.179H92.4807ZM108.352 174.604H117.297L113.316 162.242L112.867 160.812H112.699L112.222 162.382L108.352 174.604ZM107.034 148.423L112.867 140.77H122.906L122.962 140.938L115.11 148.423H107.034Z" fill="#F7F7F7"/>
<path d="M160.734 192.768C156.845 192.768 153.377 191.983 150.33 190.413C147.283 188.844 144.89 186.573 143.152 183.602C141.413 180.612 140.544 176.986 140.544 172.726V170.848C140.544 166.923 141.338 163.457 142.927 160.448C144.535 157.421 146.816 155.057 149.769 153.356C152.742 151.637 156.266 150.777 160.341 150.777C163.183 150.777 165.884 151.16 168.445 151.926C171.025 152.674 173.418 153.963 175.624 155.795V166.306H168.473L167.492 160.28C166.856 159.85 166.183 159.476 165.473 159.159C164.781 158.841 164.033 158.598 163.229 158.43C162.444 158.262 161.594 158.177 160.678 158.177C158.602 158.177 156.789 158.673 155.237 159.663C153.686 160.654 152.48 162.092 151.62 163.98C150.779 165.849 150.358 168.119 150.358 170.791V172.726C150.358 175.23 150.798 177.435 151.676 179.341C152.555 181.228 153.779 182.705 155.35 183.77C156.939 184.835 158.771 185.368 160.846 185.368C161.949 185.368 163.07 185.256 164.211 185.031C165.351 184.788 166.454 184.471 167.52 184.078L168.501 178.304H175.68V188.591C174.053 189.713 171.978 190.694 169.454 191.535C166.931 192.357 164.024 192.768 160.734 192.768Z" fill="#F7F7F7"/>
<path d="M184.961 192.179V186.433L187.822 186.012L199.992 151.366H210.647L222.845 186.012L225.706 186.433V192.179H210.451V186.433L213.115 185.928L211.881 181.499H198.758L197.58 185.928L200.244 186.433V192.179H184.961ZM200.833 174.604H209.778L205.796 162.242L205.348 160.812H205.179L204.703 162.382L200.833 174.604Z" fill="#F7F7F7"/>
<path d="M234.679 192.179V186.433L238.913 185.536V158.037L234.679 157.14V151.338H254.757C257.991 151.338 260.795 151.852 263.169 152.88C265.543 153.907 267.375 155.374 268.665 157.28C269.955 159.168 270.6 161.41 270.6 164.008C270.6 166.4 269.946 168.624 268.637 170.679C267.347 172.735 265.571 174.389 263.309 175.641C261.047 176.874 258.467 177.482 255.57 177.463L248.756 177.379V185.536L252.99 186.433V192.179H234.679ZM260.533 192.179L255.037 176.258L263.59 173.342L268.553 185.48L272.423 186.461V192.179H260.533ZM248.756 169.838H254.869C256.776 169.838 258.243 169.399 259.271 168.521C260.299 167.624 260.814 166.335 260.814 164.653C260.814 162.915 260.29 161.522 259.243 160.476C258.196 159.411 256.701 158.878 254.757 158.878H248.756V169.838Z" fill="#F7F7F7"/>
<path d="M281.256 192.179V186.433L284.116 186.012L296.286 151.366H306.942L319.14 186.012L322 186.433V192.179H306.745V186.433L309.409 185.928L308.176 181.499H295.052L293.874 185.928L296.538 186.433V192.179H281.256ZM297.127 174.604H306.072L302.091 162.242L301.642 160.812H301.474L300.997 162.382L297.127 174.604Z" fill="#F7F7F7"/>
<path d="M18.4232 242.411V236.665L22.6295 235.768V208.269L18.4232 207.372V201.598H37.6877L47.5583 228.48H47.7266L57.3167 201.598H76.3569V207.372L72.1226 208.269V235.768L76.3569 236.665V242.411H58.0738V236.665L62.4764 235.768V230.442L62.7007 211.241L62.5324 211.213L50.9794 242.411H43.2399L31.5186 211.577L31.3223 211.605L31.9953 229.096V235.768L36.7343 236.665V242.411H18.4232Z" fill="#F7F7F7"/>
<path d="M105.212 243C102.389 243 99.7902 242.486 97.416 241.458C95.0605 240.412 93.0135 238.954 91.2749 237.085C89.5364 235.217 88.1904 233.03 87.237 230.526C86.3022 228.003 85.8349 225.266 85.8349 222.313V221.668C85.8349 218.734 86.3022 216.015 87.237 213.511C88.1904 211.007 89.527 208.821 91.2469 206.952C92.9855 205.083 95.0325 203.625 97.388 202.579C99.7434 201.532 102.333 201.009 105.155 201.009C107.922 201.009 110.493 201.532 112.867 202.579C115.241 203.625 117.316 205.083 119.092 206.952C120.887 208.821 122.279 211.007 123.27 213.511C124.261 216.015 124.756 218.734 124.756 221.668V222.313C124.756 225.266 124.261 228.003 123.27 230.526C122.279 233.03 120.896 235.217 119.12 237.085C117.344 238.954 115.269 240.412 112.895 241.458C110.521 242.486 107.96 243 105.212 243ZM105.212 235.544C107.268 235.544 109.025 234.992 110.483 233.89C111.941 232.787 113.054 231.246 113.82 229.265C114.587 227.284 114.97 224.967 114.97 222.313V221.612C114.97 219.015 114.577 216.735 113.792 214.773C113.026 212.792 111.913 211.25 110.455 210.147C108.997 209.045 107.231 208.494 105.155 208.494C102.968 208.494 101.174 209.035 99.7715 210.119C98.3881 211.203 97.3599 212.726 96.6869 214.688C96.0139 216.651 95.6774 218.959 95.6774 221.612V222.313C95.6774 224.967 96.0139 227.293 96.6869 229.293C97.3786 231.274 98.4255 232.815 99.8276 233.918C101.248 235.002 103.043 235.544 105.212 235.544Z" fill="#F7F7F7"/>
<path d="M134.599 242.411V236.665L138.805 235.768V208.269L134.599 207.372V201.598H148.816L165.192 227.723H165.36V208.269L160.005 207.372V201.598H178.316V207.372L174.081 208.269V242.411H164.379L147.694 216.847H147.526V235.768L152.91 236.665V242.411H134.599Z" fill="#F7F7F7"/>
<path d="M196.01 242.411V236.665L200.272 235.768V209.222H193.963L193.71 213.623H186.279V201.598H224.219V213.623H216.704L216.48 209.222H210.115V235.768L214.377 236.665V242.411H196.01Z" fill="#F7F7F7"/>
<path d="M232.884 242.411V236.665L237.119 235.768V208.269L232.884 207.372V201.598H265.496V213.371H258.065L257.841 209.166H246.961V217.548H260V225.088H246.961V234.815H258.374L258.598 230.414H265.945V242.411H232.884Z" fill="#F7F7F7"/>
<path d="M294.66 243C291.332 243 288.378 242.682 285.798 242.047C283.219 241.412 280.648 240.216 278.087 238.459V227.863H285.686L286.528 233.301C287.126 233.974 288.182 234.544 289.696 235.011C291.21 235.46 292.865 235.684 294.66 235.684C295.912 235.684 296.959 235.534 297.8 235.235C298.641 234.918 299.277 234.46 299.707 233.862C300.137 233.264 300.352 232.544 300.352 231.703C300.352 230.9 300.146 230.18 299.735 229.545C299.342 228.91 298.688 228.312 297.772 227.751C296.856 227.172 295.622 226.583 294.071 225.985C290.575 224.864 287.705 223.724 285.462 222.565C283.219 221.407 281.546 220.033 280.443 218.445C279.358 216.856 278.816 214.885 278.816 212.53C278.816 210.269 279.461 208.297 280.751 206.615C282.041 204.915 283.817 203.579 286.079 202.607C288.341 201.635 290.93 201.121 293.846 201.065C297.174 200.99 300.118 201.327 302.679 202.074C305.241 202.803 307.503 203.915 309.465 205.41V215.249H302.175L301.025 209.783C300.389 209.465 299.483 209.176 298.305 208.914C297.127 208.652 295.875 208.522 294.547 208.522C293.407 208.522 292.388 208.671 291.491 208.97C290.612 209.269 289.911 209.718 289.388 210.316C288.883 210.914 288.631 211.661 288.631 212.558C288.631 213.287 288.846 213.941 289.276 214.52C289.706 215.081 290.463 215.651 291.547 216.23C292.631 216.791 294.145 217.445 296.09 218.192C300.726 219.557 304.24 221.266 306.633 223.322C309.045 225.359 310.251 228.134 310.251 231.647C310.251 234.058 309.596 236.114 308.288 237.814C306.979 239.496 305.156 240.786 302.82 241.683C300.483 242.561 297.763 243 294.66 243Z" fill="#F7F7F7"/>
</svg>
